<svg xmlns="http://www.w3.org/2000/svg" width="1024" height="1024" viewBox="0 0 1024 1024" version="1.1"><path d="M 562.500 575.480 C 537.229 581.043, 520.503 597.476, 512.400 624.703 C 509.216 635.403, 508.054 654.739, 509.942 665.607 C 512.484 680.238, 521.149 696.365, 531.598 705.915 C 538.576 712.293, 553.062 719.536, 563 721.616 C 572.192 723.540, 590.661 723.751, 598.041 722.017 C 611.404 718.875, 621.666 711.996, 627.086 702.547 C 629.668 698.046, 629.982 696.559, 629.991 688.797 C 630.001 679.047, 628.765 675.230, 625.316 674.364 C 622.320 673.613, 620.793 674.933, 616.521 681.966 C 604.269 702.134, 582.333 707.816, 566.139 695.016 C 560.510 690.566, 556.841 684.925, 553.198 675.120 C 548.004 661.140, 549.438 629.249, 555.881 615.453 C 559.681 607.315, 564.007 602.635, 570.818 599.290 C 575.758 596.864, 577.675 596.500, 585.500 596.500 C 593.577 596.500, 595.041 596.800, 599.774 599.422 C 605.640 602.672, 611.957 609.157, 616.500 616.590 C 619.172 620.963, 619.883 621.500, 623 621.500 C 626.061 621.500, 626.733 621.023, 628.360 617.693 C 630.071 614.189, 630.148 612.491, 629.324 596.336 C 628.523 580.650, 628.219 578.631, 626.464 577.330 C 625.165 576.367, 623.484 576.102, 621.500 576.550 C 616.157 577.754, 608.664 577.441, 601.185 575.701 C 592.319 573.639, 571.404 573.520, 562.500 575.480 M 707.303 575.048 C 695.608 577.359, 682.327 584.793, 672.550 594.500 C 661.267 605.703, 655.471 617.688, 652.929 635.074 C 651.296 646.243, 652.270 663.430, 655.051 672.500 C 662.434 696.581, 680.606 713.712, 706.058 720.585 C 714.269 722.803, 734.207 723.088, 741.965 721.099 C 763.595 715.552, 782.152 698.562, 789.010 678.026 C 793.862 663.498, 795.011 649.730, 792.602 635 C 789.576 616.497, 784.437 606.230, 772.081 594 C 757.881 579.946, 742.677 573.897, 722.090 574.110 C 716.266 574.170, 709.611 574.592, 707.303 575.048 M 244.658 577.485 C 243.198 578.945, 241.376 611.209, 242.576 614.338 C 242.991 615.419, 244.359 616, 246.488 616 C 249.109 616, 250.320 615.252, 252.553 612.250 C 256.662 606.728, 262.954 601.133, 267.500 598.958 C 271.726 596.936, 280.918 596.319, 282.550 597.949 C 283.138 598.536, 283.309 617.686, 283 648.199 C 282.450 702.425, 282.722 700.131, 276.089 706.437 C 274.188 708.245, 273.006 710.360, 273.015 711.937 C 273.057 718.843, 277.274 720, 302.412 720 C 322.352 720, 322.959 719.940, 325.569 717.694 C 328.674 715.023, 329.073 711.154, 326.592 707.765 C 325.680 706.519, 323.857 704.021, 322.542 702.213 C 318.393 696.512, 318 691.474, 318 643.919 C 318 592.534, 316.853 597.690, 328.313 597.572 L 335.255 597.500 343.093 605.854 C 347.404 610.449, 351.202 615.062, 351.533 616.104 C 352.277 618.447, 355.296 618.561, 357.528 616.329 C 358.988 614.869, 359.145 612.635, 358.772 598.579 C 358.537 589.736, 357.996 581.717, 357.570 580.761 C 355.912 577.043, 350.413 576.712, 300.313 577.316 C 273.620 577.638, 250.760 577.505, 249.064 577.018 C 246.859 576.386, 245.626 576.517, 244.658 577.485 M 403.250 578.031 C 399.932 579.365, 400.290 583.558, 404 586.813 C 405.650 588.261, 407 590.432, 407 591.637 C 407 592.842, 405.483 597.805, 403.629 602.664 C 401.775 607.524, 395.185 627.700, 388.985 647.500 C 373.361 697.395, 371.393 701.847, 361.971 708.616 C 356.555 712.507, 355.867 714.663, 359.103 717.595 C 361.004 719.317, 363.187 719.528, 381.853 719.787 C 401.115 720.054, 402.718 719.937, 405.750 718.051 C 411.246 714.632, 410.060 710.412, 402.250 705.596 C 398.582 703.334, 398 702.504, 398 699.536 C 398 695.942, 403.130 679.470, 404.756 677.844 C 405.332 677.268, 413.496 677.224, 425.948 677.732 C 444.016 678.468, 446.351 678.759, 447.570 680.426 C 449.500 683.066, 455.178 701.761, 454.808 704.257 C 454.611 705.580, 453.304 706.733, 451.200 707.438 C 445.722 709.274, 444.249 714.104, 448.103 717.595 C 450.012 719.325, 452.242 719.530, 472.353 719.824 C 484.534 720.003, 496.445 719.858, 498.822 719.502 C 503.348 718.825, 507 716.108, 507 713.416 C 507 712.545, 504.132 709.161, 500.628 705.896 C 492.758 698.565, 491.899 696.713, 479.050 659.330 C 450.714 576.891, 451.812 579.598, 446.063 578.001 C 441.637 576.771, 406.322 576.796, 403.250 578.031 M 716.500 593.885 C 705.096 596.853, 698.762 605.863, 694.785 624.776 C 691.918 638.408, 691.723 664.287, 694.406 675 C 699.373 694.836, 709.434 703.842, 725.485 702.820 C 737.246 702.071, 745.804 694.141, 749.938 680.160 C 754.117 666.027, 754.833 639.577, 751.489 622.883 C 749.120 611.057, 742.130 599.637, 735.050 596.026 C 730.826 593.871, 720.938 592.729, 716.500 593.885 M 423.642 615.844 C 420.571 619.237, 408.623 654.853, 409.654 657.540 C 410.065 658.611, 413.035 658.777, 424.335 658.359 C 432.126 658.071, 439.028 657.675, 439.672 657.479 C 440.451 657.242, 438.577 650.454, 434.096 637.283 C 430.384 626.371, 426.904 616.651, 426.363 615.684 C 425.433 614.021, 425.283 614.030, 423.642 615.844 M 581 747.144 C 554.379 749.780, 530.116 768.815, 522.074 793.375 C 520.971 796.744, 519.825 800.850, 519.528 802.500 C 511.697 845.901, 529.943 880.196, 567.500 892.670 C 574.661 895.049, 577.073 895.337, 590.500 895.414 C 606.747 895.507, 611.445 894.669, 621.169 889.939 C 639.989 880.786, 652.748 865.398, 658.145 845.342 C 660.654 836.020, 661.138 815.446, 659.094 805 C 654.478 781.404, 642.319 764.428, 622.940 754.520 C 610.702 748.263, 595.930 745.665, 581 747.144 M 328.924 750.581 C 326.157 753.527, 323.919 753.520, 311 750.530 C 305.211 749.190, 300.990 748.923, 292.500 749.361 C 276.242 750.200, 265.189 754.097, 256.590 762.024 C 244.925 772.776, 241.155 792.530, 248.061 806.710 C 253.385 817.641, 262.899 824.054, 290.985 835.646 C 300.635 839.629, 303.372 841.274, 308.113 845.943 C 314.434 852.168, 315.832 856.195, 314.016 862.940 C 311.512 872.238, 303.690 876.472, 290.161 875.853 C 276.581 875.231, 266.293 868.489, 256.740 853.952 C 252.272 847.153, 249.922 845.875, 246.493 848.380 C 244.636 849.736, 244.479 851.207, 244.191 870.003 C 243.929 887.071, 244.125 890.542, 245.464 892.585 C 247.786 896.128, 252.256 895.854, 255 892 C 257.762 888.121, 260.213 888.135, 273.282 892.102 C 281.386 894.562, 285.982 895.312, 295.500 895.726 C 314.605 896.556, 326.602 892.521, 337.588 881.569 C 345.455 873.725, 348.051 867.288, 348.752 853.881 C 349.241 844.531, 349.161 844.071, 345.902 837.381 C 339.378 823.993, 329.056 816.211, 304.796 806.388 C 282.944 797.540, 278.917 794.159, 278.212 784.065 C 277.483 773.639, 283.922 768.004, 296.568 768.002 C 307.421 767.999, 313.559 770.243, 319.500 776.384 C 322.250 779.226, 325.850 783.790, 327.500 786.526 C 329.989 790.653, 330.992 791.500, 333.392 791.500 C 335.391 791.500, 336.926 790.641, 338.362 788.717 C 340.223 786.224, 340.481 784.220, 340.837 769.471 C 341.176 755.441, 340.992 752.637, 339.594 750.504 C 337.319 747.032, 332.224 747.069, 328.924 750.581 M 371.012 750.042 C 364.146 750.983, 362 752.556, 362 756.649 C 362 758.266, 363.244 759.645, 366.340 761.459 C 368.727 762.858, 371.220 765.187, 371.879 766.635 C 374.475 772.331, 375.109 785.399, 374.808 827 C 374.513 867.648, 374.409 869.697, 372.411 874.013 C 371.262 876.495, 368.450 880.300, 366.161 882.469 C 361.310 887.066, 360.963 889.275, 364.708 891.727 C 367.123 893.308, 370.200 893.500, 393.186 893.500 L 418.956 893.500 421.610 890.845 C 424.885 887.569, 424.315 883.738, 420.236 881.607 C 418.731 880.822, 416.150 878.760, 414.500 877.025 L 411.500 873.872 411.500 851.186 L 411.500 828.500 434.429 828.231 C 452.105 828.023, 457.543 828.252, 458.164 829.231 C 459.354 831.105, 459.162 869.875, 457.942 874.271 C 457.189 876.982, 455.798 878.734, 452.990 880.506 C 446.544 884.576, 445.429 889.469, 450.318 892.238 C 452.593 893.527, 493.293 894.436, 499.671 893.341 C 503 892.769, 507 889.729, 507 887.771 C 507 887.138, 504.509 884.320, 501.465 881.509 C 496.202 876.650, 495.877 876.064, 494.870 869.593 C 493.495 860.761, 494.309 776.158, 495.823 770.500 C 496.418 768.277, 497.917 765.833, 499.197 765 C 507.017 759.907, 508.098 754.798, 502 751.752 C 498.966 750.236, 495.368 750.003, 474.973 750.002 C 455.295 750, 451.081 750.255, 449.223 751.557 C 446.435 753.509, 446.255 758.362, 448.886 760.614 C 454.743 765.624, 455.946 767.099, 457.048 770.622 C 458.750 776.068, 459.569 805.831, 458.058 807.343 C 456.857 808.546, 429.654 809.160, 417.159 808.267 L 410.819 807.813 411.172 788.657 C 411.570 767.092, 412.051 765.312, 418.472 761.674 C 425.386 757.756, 425.698 754.214, 419.408 751.027 C 415.956 749.277, 381.682 748.580, 371.012 750.042 M 677 750.670 C 673.995 751.854, 672 754.370, 672 756.975 C 672 759.002, 672.760 759.981, 675.179 761.070 C 676.927 761.856, 679.289 763.770, 680.429 765.322 C 682.451 768.078, 682.508 769.389, 682.833 820.405 C 683.209 879.263, 683.363 877.852, 676.076 882.452 C 671.091 885.599, 670.584 889.026, 674.705 891.727 C 677.071 893.278, 680.371 893.531, 701.057 893.749 C 725.384 894.006, 729.295 893.542, 732.483 890.019 C 734.756 887.507, 733.250 884.848, 727.846 881.829 C 720.684 877.828, 719.787 875.782, 719.227 862.173 C 718.488 844.246, 717.560 845.448, 732.214 845.372 C 741.469 845.325, 746.554 844.771, 752.825 843.128 C 780.854 835.786, 793.240 819.650, 791.687 792.500 C 791.372 787, 790.327 780.078, 789.363 777.118 C 786.871 769.463, 779.708 761.949, 770.658 757.496 C 758.014 751.275, 753.686 750.732, 714 750.387 C 694.475 750.217, 677.825 750.344, 677 750.670 M 585.500 766.671 C 572.794 769.592, 565.459 778.105, 561.423 794.617 C 559.236 803.562, 558.409 828.870, 559.892 841.445 C 562.541 863.909, 572.566 875.800, 589.238 876.254 C 601.451 876.586, 608.772 872.281, 613.962 861.714 C 618.809 851.847, 620.228 843.021, 620.345 822 C 620.426 807.522, 620.074 802.019, 618.724 796.688 C 615.204 782.779, 608.346 772.342, 600.500 768.951 C 596.155 767.072, 588.689 765.937, 585.500 766.671 M 719.203 797 L 719.172 825 728.937 825 C 734.307 825, 740.231 824.489, 742.101 823.864 C 750.802 820.956, 755.164 812.041, 755.247 797 C 755.313 784.951, 753.832 779.597, 749.131 774.896 C 744.543 770.308, 739.978 769.013, 728.367 769.006 L 719.235 769 719.203 797" stroke="none" fill="#0e1210" fill-rule="evenodd"/><path d="M 248.419 127.075 C 246.724 127.567, 244.510 128.884, 243.498 130.002 C 241.724 131.963, 241.668 139.395, 241.907 342.761 C 242.043 458.661, 242.383 553.716, 242.661 553.994 C 243.851 555.183, 252.351 554.069, 264 551.199 C 270.875 549.505, 300.125 542.277, 329 535.136 C 357.875 527.994, 383.180 521.844, 385.233 521.468 L 388.967 520.784 389.233 348.475 C 389.380 253.705, 389.739 175.928, 390.030 175.636 C 390.833 174.833, 644 174.667, 644.802 175.469 C 645.186 175.853, 645.356 247.567, 645.179 334.833 C 645.003 422.100, 645.170 499.630, 645.551 507.122 L 646.243 520.745 653.372 522.352 C 657.292 523.236, 675.575 527.588, 694 532.023 C 743.882 544.030, 783.357 553, 786.312 553 C 787.791 553, 789.327 552.239, 789.842 551.250 C 790.508 549.972, 792.657 194.707, 792.353 136.091 C 792.318 129.277, 790.018 127, 783.169 127 C 779.227 127, 732.222 140.588, 719 145.549 C 706.676 150.174, 660.539 164, 657.431 164 C 656.617 164, 655.523 162.875, 655 161.500 L 654.050 159 514.916 159 L 375.783 159 376.411 161.500 C 376.954 163.664, 376.704 164, 374.557 164 C 373.192 164, 369.696 163.135, 366.788 162.077 C 361.553 160.173, 307.908 143.481, 278 134.451 C 269.475 131.877, 261.097 128.922, 259.382 127.885 C 256.033 125.860, 253.298 125.658, 248.419 127.075 M 276.121 205.470 C 276.069 224.979, 276.437 242.019, 276.939 243.339 C 277.744 245.456, 279.003 245.939, 287.675 247.464 C 293.079 248.414, 301.433 250.048, 306.239 251.096 C 311.046 252.143, 315.209 253, 315.489 253 C 315.770 253, 316 237.080, 316 217.622 L 316 182.244 310.250 180.151 C 307.087 179, 300 176.736, 294.500 175.121 C 289 173.506, 283.233 171.693, 281.685 171.092 C 275.934 168.861, 276.223 167.075, 276.121 205.470 M 752 171.697 C 750.075 172.540, 741.975 174.906, 734 176.953 L 719.500 180.676 719.238 216.838 C 719.030 245.436, 719.239 252.997, 720.238 252.987 C 721.738 252.971, 757.163 245.170, 757.567 244.767 C 757.720 244.613, 757.993 227.728, 758.173 207.244 C 758.535 166.026, 758.988 168.635, 752 171.697 M 327 219.959 L 327 254.757 329.750 255.815 C 333.457 257.240, 363.107 262.052, 364.162 261.400 C 365.122 260.807, 365.298 205.434, 364.358 199.750 C 363.793 196.332, 363.329 195.874, 359.119 194.582 C 349.727 191.699, 334.388 187.151, 330.750 186.171 L 327 185.161 327 219.959 M 686.795 190.756 C 677.608 193.817, 669.958 196.812, 669.795 197.411 C 669.633 198.010, 669.625 212.623, 669.778 229.885 L 670.057 261.270 676.728 260.587 C 682.992 259.945, 702.392 256.526, 706.250 255.383 C 707.873 254.903, 708 252.338, 708 219.933 L 708 185 705.750 185.095 C 704.513 185.147, 695.983 187.694, 686.795 190.756 M 276.238 294.750 L 276.500 332.500 284 333.132 C 288.125 333.479, 297.012 334.038, 303.750 334.373 L 316 334.983 316 300.114 C 316 273.423, 315.707 265.009, 314.750 264.237 C 314.063 263.683, 310.125 262.682, 306 262.014 C 301.875 261.346, 294.770 259.944, 290.211 258.900 C 285.652 257.855, 280.584 257, 278.949 257 L 275.975 257 276.238 294.750 M 735.733 260.408 C 727.060 262.220, 719.635 264.031, 719.233 264.433 C 718.209 265.454, 717.776 332.219, 718.783 333.738 C 719.426 334.709, 723.575 334.760, 737.983 333.974 C 748.092 333.422, 756.601 332.732, 756.893 332.441 C 757.184 332.149, 757.552 315.056, 757.711 294.455 L 757.999 257 754.749 257.057 C 752.962 257.089, 744.405 258.597, 735.733 260.408 M 327.141 300.450 C 327.417 326.158, 327.801 334.201, 328.799 335.200 C 329.764 336.166, 334.518 336.500, 347.299 336.500 L 364.500 336.500 364.764 304.877 L 365.028 273.254 356.264 271.612 C 347.238 269.921, 329.164 267.011, 327.641 267.004 C 327.169 267.002, 326.944 282.053, 327.141 300.450 M 686.500 269.900 L 670.500 272.604 670.545 276.802 C 670.570 279.111, 670.683 293.670, 670.795 309.156 L 671 337.312 688.160 336.696 C 697.599 336.357, 705.660 335.724, 706.074 335.290 C 706.489 334.855, 706.979 319.312, 707.164 300.750 L 707.500 267 705 267.097 C 703.625 267.151, 695.300 268.412, 686.500 269.900 M 733 344.958 L 718.500 345.500 718.237 380.250 C 718.020 408.944, 718.210 415, 719.329 415 C 720.074 415, 728.742 415.896, 738.592 416.991 C 748.441 418.086, 756.837 418.986, 757.250 418.991 C 757.663 418.996, 758 402.125, 758 381.500 L 758 344 752.750 344.208 C 749.862 344.322, 740.975 344.660, 733 344.958 M 276.845 361.500 C 276.762 370.300, 276.587 386.613, 276.457 397.750 L 276.220 418 278.860 417.982 C 280.312 417.971, 288.925 417.080, 298 416 C 307.075 414.920, 314.837 414.029, 315.250 414.018 C 315.663 414.008, 316 398.911, 316 380.469 C 316 354.544, 315.716 346.838, 314.750 346.499 C 314.063 346.257, 305.287 345.934, 295.249 345.780 L 276.997 345.500 276.845 361.500 M 683.807 346.725 L 671.114 347.059 670.511 351.279 C 670.179 353.601, 670.041 367.875, 670.204 383 L 670.500 410.500 681.500 411.656 C 687.550 412.292, 695.769 412.854, 699.763 412.906 L 707.027 413 706.763 379.750 L 706.500 346.500 701.500 346.446 C 698.750 346.416, 690.788 346.542, 683.807 346.725 M 327.667 347.667 C 326.448 348.886, 326.886 412.795, 328.117 413.206 C 328.731 413.410, 332.668 413.265, 336.867 412.883 C 341.065 412.501, 348.887 411.879, 354.250 411.501 L 364 410.813 364 378.907 L 364 347 346.167 347 C 336.358 347, 328.033 347.300, 327.667 347.667 M 255.329 360.458 C 250.993 362.344, 249.479 365.639, 249.889 372.295 C 250.073 375.277, 254.580 379, 258.004 379 C 261.815 379, 266.593 376.630, 267.970 374.055 C 269.312 371.549, 269.286 366.403, 267.920 363.850 C 266.960 362.057, 261.355 358.935, 259.282 359.039 C 258.852 359.061, 257.073 359.699, 255.329 360.458 M 769.301 360.958 C 765.524 363.261, 763.393 369.272, 764.925 373.302 C 767.269 379.468, 775.228 380.926, 780.077 376.077 C 782.439 373.715, 783 372.293, 783 368.666 C 783 364.882, 782.517 363.772, 779.923 361.589 C 776.248 358.496, 773.596 358.339, 769.301 360.958 M 346.199 422.403 C 334.735 423.911, 329.621 424.985, 328.964 426.023 C 328.433 426.863, 328.024 442.424, 328.015 462.108 L 328 496.715 340.250 493.858 C 346.988 492.287, 354.863 490.489, 357.750 489.863 L 363 488.724 363.003 470.112 C 363.005 459.875, 363.301 444.413, 363.660 435.750 C 364.044 426.493, 363.939 420.053, 363.407 420.130 C 362.908 420.201, 355.165 421.224, 346.199 422.403 M 670 455.906 L 670 490.812 675.250 491.510 C 678.138 491.894, 685.849 493.286, 692.388 494.604 C 698.926 495.922, 705.226 497, 706.388 497.001 L 708.500 497.001 708.205 461.751 C 707.989 435.908, 707.589 426.184, 706.705 425.315 C 705.780 424.406, 677.700 421, 671.126 421 C 670.313 421, 670 430.691, 670 455.906 M 297 428.658 C 290.675 429.418, 283.475 430.378, 281 430.792 L 276.500 431.543 275.684 469.372 C 275.235 490.178, 275.063 507.396, 275.301 507.634 C 275.835 508.169, 281.142 507.056, 300.750 502.298 L 316 498.598 316 462.799 L 316 427 312.250 427.138 C 310.188 427.213, 303.325 427.897, 297 428.658 M 718 462.965 C 718 496.483, 718.122 498.995, 719.788 499.886 C 723.652 501.955, 757.849 509.269, 758.273 508.118 C 758.398 507.778, 758.363 490.332, 758.195 469.349 L 757.891 431.198 749.695 430.491 C 745.188 430.101, 737.900 429.157, 733.500 428.393 C 729.100 427.628, 723.813 427.002, 721.750 427.001 L 718 427 718 462.965 M 577.776 573.733 C 580.128 573.945, 583.728 573.942, 585.776 573.727 C 587.824 573.512, 585.900 573.339, 581.500 573.343 C 577.100 573.346, 575.424 573.522, 577.776 573.733 M 719.768 573.725 C 721.565 573.947, 724.265 573.943, 725.768 573.715 C 727.271 573.486, 725.800 573.304, 722.500 573.310 C 719.200 573.315, 717.971 573.502, 719.768 573.725 M 359.328 605.500 C 359.333 609.350, 359.513 610.802, 359.730 608.728 C 359.946 606.653, 359.943 603.503, 359.722 601.728 C 359.501 599.952, 359.324 601.650, 359.328 605.500 M 408.250 677.728 C 410.313 677.944, 413.688 677.944, 415.750 677.728 C 417.813 677.513, 416.125 677.336, 412 677.336 C 407.875 677.336, 406.188 677.513, 408.250 677.728 M 393.750 748.723 C 395.538 748.945, 398.462 748.945, 400.250 748.723 C 402.038 748.502, 400.575 748.320, 397 748.320 C 393.425 748.320, 391.962 748.502, 393.750 748.723 M 466.776 749.733 C 469.128 749.945, 472.728 749.942, 474.776 749.727 C 476.824 749.512, 474.900 749.339, 470.500 749.343 C 466.100 749.346, 464.424 749.522, 466.776 749.733 M 699.750 749.747 C 706.487 749.920, 717.513 749.920, 724.250 749.747 C 730.987 749.574, 725.475 749.432, 712 749.432 C 698.525 749.432, 693.013 749.574, 699.750 749.747 M 431.296 808.744 C 435.583 808.932, 442.333 808.931, 446.296 808.742 C 450.258 808.552, 446.750 808.399, 438.500 808.400 C 430.250 808.401, 427.008 808.556, 431.296 808.744 M 427.304 828.747 C 433.247 828.924, 442.697 828.923, 448.304 828.745 C 453.912 828.567, 449.050 828.422, 437.500 828.423 C 425.950 828.424, 421.362 828.570, 427.304 828.747" stroke="none" fill="#fb8981" fill-rule="evenodd"/></svg>